<svg width="447" height="126" viewBox="0 0 447 126" fill="none" xmlns="http://www.w3.org/2000/svg">
<path d="M161.874 92.92C155.154 92.92 148.914 91.912 143.154 89.896C137.49 87.784 133.074 85.144 129.906 81.976C128.466 80.44 127.842 78.712 128.034 76.792C128.322 74.776 129.282 73.144 130.914 71.896C132.834 70.36 134.706 69.736 136.53 70.024C138.45 70.216 140.082 71.032 141.426 72.472C143.058 74.296 145.65 76.024 149.202 77.656C152.85 79.192 156.882 79.96 161.298 79.96C166.866 79.96 171.09 79.048 173.97 77.224C176.946 75.4 178.482 73.048 178.578 70.168C178.674 67.288 177.282 64.792 174.402 62.68C171.618 60.568 166.482 58.84 158.994 57.496C149.298 55.576 142.242 52.696 137.826 48.856C133.506 45.016 131.346 40.312 131.346 34.744C131.346 29.848 132.786 25.816 135.666 22.648C138.546 19.384 142.242 16.984 146.754 15.448C151.266 13.816 155.97 13 160.866 13C167.202 13 172.818 14.008 177.714 16.024C182.61 18.04 186.498 20.824 189.378 24.376C190.722 25.912 191.346 27.544 191.25 29.272C191.154 30.904 190.338 32.296 188.802 33.448C187.266 34.504 185.442 34.84 183.33 34.456C181.218 34.072 179.442 33.208 178.002 31.864C175.602 29.56 173.01 27.976 170.226 27.112C167.442 26.248 164.226 25.816 160.578 25.816C156.354 25.816 152.754 26.536 149.778 27.976C146.898 29.416 145.458 31.528 145.458 34.312C145.458 36.04 145.89 37.624 146.754 39.064C147.714 40.408 149.538 41.656 152.226 42.808C154.914 43.864 158.85 44.92 164.034 45.976C174.882 48.088 182.37 51.112 186.498 55.048C190.722 58.888 192.834 63.64 192.834 69.304C192.834 73.72 191.634 77.704 189.234 81.256C186.93 84.808 183.474 87.64 178.866 89.752C174.354 91.864 168.69 92.92 161.874 92.92Z" fill="#AE0559"/>
<path d="M203.258 61.56V18.92C203.258 17.608 203.914 16.46 205.226 15.476C206.647 14.492 208.287 14 210.146 14C211.895 14 213.426 14.5467 214.738 15.64C216.159 16.624 216.87 17.7173 216.87 18.92V61.56C216.87 66.48 218.728 70.908 222.446 74.844C226.163 78.78 230.591 80.748 235.73 80.748C240.759 80.748 245.132 78.8347 248.85 75.008C252.567 71.072 254.426 66.5893 254.426 61.56V18.756C254.426 17.5533 255.082 16.46 256.394 15.476C257.815 14.492 259.455 14 261.314 14C263.282 14 264.867 14.492 266.07 15.476C267.382 16.3507 268.038 17.444 268.038 18.756V61.56C268.038 69.9787 264.812 77.3587 258.362 83.7C252.02 89.932 244.476 93.048 235.73 93.048C226.874 93.048 219.22 89.932 212.77 83.7C206.428 77.3587 203.258 69.9787 203.258 61.56Z" fill="#AE0559"/>
<path d="M314.864 92.92C307.664 92.92 301.28 91.24 295.712 87.88C290.24 84.424 285.92 79.72 282.752 73.768C279.584 67.72 278 60.808 278 53.032C278 45.16 279.68 38.248 283.04 32.296C286.496 26.248 291.2 21.544 297.152 18.184C303.104 14.728 309.968 13 317.744 13C325.424 13 332.24 14.728 338.192 18.184C344.144 21.544 348.8 26.248 352.16 32.296C355.616 38.248 357.344 45.16 357.344 53.032V84.136C357.344 91.72 355.664 98.584 352.304 104.728C348.944 110.968 344.24 115.912 338.192 119.56C332.24 123.208 325.328 125.032 317.456 125.032C310.64 125.032 304.256 123.688 298.304 121C292.352 118.312 287.312 114.376 283.184 109.192C281.936 107.56 281.456 105.88 281.744 104.152C282.128 102.424 283.088 101.032 284.624 99.976C286.352 98.824 288.128 98.44 289.952 98.824C291.872 99.208 293.408 100.168 294.56 101.704C297.152 104.968 300.416 107.512 304.352 109.336C308.288 111.16 312.752 112.072 317.744 112.072C322.352 112.072 326.576 110.968 330.416 108.76C334.352 106.552 337.472 103.288 339.776 98.968C342.08 94.648 343.232 89.368 343.232 83.128V76.072C340.256 81.256 336.32 85.384 331.424 88.456C326.528 91.432 321.008 92.92 314.864 92.92ZM317.744 79.96C322.736 79.96 327.152 78.808 330.992 76.504C334.832 74.2 337.808 71.032 339.92 67C342.128 62.968 343.232 58.312 343.232 53.032C343.232 47.752 342.128 43.096 339.92 39.064C337.808 34.936 334.832 31.72 330.992 29.416C327.152 27.112 322.736 25.96 317.744 25.96C312.752 25.96 308.336 27.112 304.496 29.416C300.656 31.72 297.632 34.936 295.424 39.064C293.216 43.096 292.112 47.752 292.112 53.032C292.112 58.312 293.216 62.968 295.424 67C297.632 71.032 300.656 74.2 304.496 76.504C308.336 78.808 312.752 79.96 317.744 79.96Z" fill="#AE0559"/>
<path d="M403.864 92.92C396.856 92.92 390.568 91.192 385 87.736C379.432 84.184 375.016 79.432 371.752 73.48C368.584 67.432 367 60.616 367 53.032C367 45.448 368.728 38.632 372.184 32.584C375.736 26.536 380.488 21.784 386.44 18.328C392.488 14.776 399.256 13 406.744 13C414.232 13 420.952 14.776 426.904 18.328C432.856 21.784 437.56 26.536 441.016 32.584C444.568 38.632 446.344 45.448 446.344 53.032V85.144C446.344 87.256 445.624 89.032 444.184 90.472C442.84 91.816 441.112 92.488 439 92.488C436.888 92.488 435.112 91.816 433.672 90.472C432.328 89.032 431.656 87.256 431.656 85.144V79.816C428.296 83.848 424.216 87.064 419.416 89.464C414.712 91.768 409.528 92.92 403.864 92.92ZM406.744 79.96C411.64 79.96 416.008 78.808 419.848 76.504C423.688 74.104 426.712 70.888 428.92 66.856C431.128 62.728 432.232 58.12 432.232 53.032C432.232 47.848 431.128 43.24 428.92 39.208C426.712 35.08 423.688 31.864 419.848 29.56C416.008 27.16 411.64 25.96 406.744 25.96C401.944 25.96 397.576 27.16 393.64 29.56C389.8 31.864 386.728 35.08 384.424 39.208C382.216 43.24 381.112 47.848 381.112 53.032C381.112 58.12 382.216 62.728 384.424 66.856C386.728 70.888 389.8 74.104 393.64 76.504C397.576 78.808 401.944 79.96 406.744 79.96Z" fill="#AE0559"/>
<circle cx="51" cy="51" r="51" fill="#AE0559"/>
<rect x="30.2222" y="30.2222" width="41.5556" height="41.5556" rx="4" fill="white"/>
</svg>
